<svg viewBox="0 0 32 32" fill="none" xmlns="http://www.w3.org/2000/svg"><path d="M0 16C0 12.2801 0 10.4202 0.40889 8.89417C1.5185 4.75307 4.75307 1.5185 8.89417 0.40889C10.4202 0 12.2801 0 16 0C19.7199 0 21.5798 0 23.1058 0.40889C27.2469 1.5185 30.4815 4.75307 31.5911 8.89417C32 10.4202 32 12.2801 32 16C32 19.7199 32 21.5798 31.5911 23.1058C30.4815 27.2469 27.2469 30.4815 23.1058 31.5911C21.5798 32 19.7199 32 16 32C12.2801 32 10.4202 32 8.89417 31.5911C4.75307 30.4815 1.5185 27.2469 0.40889 23.1058C0 21.5798 0 19.7199 0 16Z" fill="currentColor"></path><path id="icon" fill="currentColor" fill-rule="evenodd" clip-rule="evenodd" d="M23.1043 12.4065L22.4954 12.1347C21.905 11.8707 21.2377 11.9195 20.6986 12.2091C20.529 12.2636 20.3636 12.3701 20.2192 12.5392C19.2275 13.7013 17.6849 14.2423 16.1597 14.135C15.4589 14.0859 14.7383 14.135 13.6071 13.4189C13.1173 13.1087 11.4928 12.8103 12.0517 13.9697C12.7181 15.359 14.4563 15.9886 15.9625 16.0946C16.8074 16.1544 17.6584 16.0683 18.4659 15.8441L18.1025 16.5681L19.7435 21.9199C20.2767 21.7725 20.7483 21.4149 21.0073 20.8989L24.0131 14.913C24.4867 13.9697 24.0778 12.8419 23.1043 12.4065ZM23.5816 6.35749C22.2645 6.00752 20.8492 7.11224 20.4576 8.38367C20.0659 9.65509 20.8463 10.6115 22.1634 10.9615C23.4804 11.3114 24.8654 10.5645 25.2571 9.29313C25.6487 8.0217 24.8986 6.70747 23.5816 6.35749ZM17.1964 18.2255L12.9965 17.1095C12.2336 16.9068 11.437 17.2619 11.0794 17.9194L7.10446 22.6833C5.94248 24.4411 7.79908 25.7209 9.2504 24.3245L13.2348 20.4554L18.2097 21.7774L17.198 18.2252L17.1964 18.2255Z"></path></svg>