<svg viewBox="0 0 44 30" fill="none" xmlns="http://www.w3.org/2000/svg"><path d="M38.3784 12.8162L39.7676 11.3773L39.7675 11.3773L38.3784 12.8162ZM37.64 11.8245L39.4189 10.9104L37.64 11.8245ZM40.4939 14.8587L39.1048 16.2975L39.1048 16.2975L40.4939 14.8587ZM39.6358 27.4003C39.6358 28.5048 40.5312 29.4003 41.6358 29.4003C42.7403 29.4003 43.6358 28.5048 43.6358 27.4003H39.6358ZM0 27.4003C0 28.5048 0.89543 29.4003 2 29.4003C3.10457 29.4003 4 28.5048 4 27.4003H0ZM3.21193 14.7604L4.56494 16.2333H4.56494L3.21193 14.7604ZM6.54406 11.2831L8.37009 12.099L6.54406 11.2831ZM5.64858 12.522L4.29557 11.0492L4.29557 11.0492L5.64858 12.522ZM9.53247 4.59444L7.70644 3.7786V3.7786L9.53247 4.59444ZM33.8318 4.41319L32.0529 5.32725V5.32725L33.8318 4.41319ZM3.17936 8.86678C2.11665 8.56558 1.01098 9.1829 0.709774 10.2456C0.408571 11.3083 1.02589 12.414 2.0886 12.7152L3.17936 8.86678ZM41.5468 12.7152C42.6095 12.4139 43.2268 11.3083 42.9256 10.2456C42.6244 9.18285 41.5187 8.56556 40.456 8.8668L41.5468 12.7152ZM30.2716 0.297607H13.1796V4.29761H30.2716V0.297607ZM7.70644 3.7786L4.71803 10.4673L8.37009 12.099L11.3585 5.41029L7.70644 3.7786ZM4.29557 11.0492L1.85891 13.2875L4.56494 16.2333L7.00159 13.9949L4.29557 11.0492ZM0 17.4773V27.4003H4V17.4773H0ZM43.6358 27.4003V17.5096H39.6358V27.4003H43.6358ZM41.8831 13.4199L39.7676 11.3773L36.9892 14.255L39.1048 16.2975L41.8831 13.4199ZM39.4189 10.9104L35.6107 3.49912L32.0529 5.32725L35.8611 12.7386L39.4189 10.9104ZM39.7675 11.3773C39.6222 11.237 39.5054 11.0788 39.4189 10.9104L35.8611 12.7386C36.1511 13.303 36.5331 13.8146 36.9892 14.255L39.7675 11.3773ZM43.6358 17.5096C43.6358 15.9597 42.9941 14.4925 41.8831 13.4198L39.1048 16.2975C39.457 16.6376 39.6358 17.0751 39.6358 17.5096H43.6358ZM1.85891 13.2875C0.68441 14.3664 0 15.8762 0 17.4773H4C4 17.0289 4.19053 16.5772 4.56494 16.2333L1.85891 13.2875ZM4.71803 10.4673C4.62312 10.6797 4.48125 10.8786 4.29557 11.0492L7.00159 13.9949C7.58138 13.4623 8.04858 12.8185 8.37009 12.099L4.71803 10.4673ZM13.1796 0.297607C10.844 0.297607 8.66759 1.62735 7.70644 3.7786L11.3585 5.41029C11.6419 4.77605 12.3366 4.29761 13.1796 4.29761V0.297607ZM30.2716 4.29761C31.0731 4.29761 31.747 4.73203 32.0529 5.32725L35.6107 3.49912C34.586 1.50493 32.4972 0.297607 30.2716 0.297607V4.29761ZM6.50896 9.81049L3.17936 8.86678L2.0886 12.7152L5.4182 13.6589L6.50896 9.81049ZM38.2176 13.6589L41.5468 12.7152L40.456 8.8668L37.1268 9.81051L38.2176 13.6589Z" fill="currentColor"></path><circle cx="9.60528" cy="18.4722" r="2" stroke="currentColor" stroke-width="1.28477"></circle><circle cx="34.0291" cy="18.4722" r="2" stroke="currentColor" stroke-width="1.28477"></circle><path d="M38.3784 12.8162L39.7676 11.3773L39.7675 11.3773L38.3784 12.8162ZM37.64 11.8245L39.4189 10.9104L37.64 11.8245ZM40.4939 14.8587L39.1048 16.2975L39.1048 16.2975L40.4939 14.8587ZM39.6358 27.4003C39.6358 28.5048 40.5312 29.4003 41.6358 29.4003C42.7403 29.4003 43.6358 28.5048 43.6358 27.4003H39.6358ZM0 27.4003C0 28.5048 0.89543 29.4003 2 29.4003C3.10457 29.4003 4 28.5048 4 27.4003H0ZM3.21193 14.7604L4.56494 16.2333H4.56494L3.21193 14.7604ZM6.54406 11.2831L8.37009 12.099L6.54406 11.2831ZM5.64858 12.522L4.29557 11.0492L4.29557 11.0492L5.64858 12.522ZM9.53247 4.59444L7.70644 3.7786V3.7786L9.53247 4.59444ZM33.8318 4.41319L32.0529 5.32725V5.32725L33.8318 4.41319ZM3.17936 8.86678C2.11665 8.56558 1.01098 9.1829 0.709774 10.2456C0.408571 11.3083 1.02589 12.414 2.0886 12.7152L3.17936 8.86678ZM41.5468 12.7152C42.6095 12.4139 43.2268 11.3083 42.9256 10.2456C42.6244 9.18285 41.5187 8.56556 40.456 8.8668L41.5468 12.7152ZM30.2716 0.297607H13.1796V4.29761H30.2716V0.297607ZM7.70644 3.7786L4.71803 10.4673L8.37009 12.099L11.3585 5.41029L7.70644 3.7786ZM4.29557 11.0492L1.85891 13.2875L4.56494 16.2333L7.00159 13.9949L4.29557 11.0492ZM0 17.4773V27.4003H4V17.4773H0ZM43.6358 27.4003V17.5096H39.6358V27.4003H43.6358ZM41.8831 13.4199L39.7676 11.3773L36.9892 14.255L39.1048 16.2975L41.8831 13.4199ZM39.4189 10.9104L35.6107 3.49912L32.0529 5.32725L35.8611 12.7386L39.4189 10.9104ZM39.7675 11.3773C39.6222 11.237 39.5054 11.0788 39.4189 10.9104L35.8611 12.7386C36.1511 13.303 36.5331 13.8146 36.9892 14.255L39.7675 11.3773ZM43.6358 17.5096C43.6358 15.9597 42.9941 14.4925 41.8831 13.4198L39.1048 16.2975C39.457 16.6376 39.6358 17.0751 39.6358 17.5096H43.6358ZM1.85891 13.2875C0.68441 14.3664 0 15.8762 0 17.4773H4C4 17.0289 4.19053 16.5772 4.56494 16.2333L1.85891 13.2875ZM4.71803 10.4673C4.62312 10.6797 4.48125 10.8786 4.29557 11.0492L7.00159 13.9949C7.58138 13.4623 8.04858 12.8185 8.37009 12.099L4.71803 10.4673ZM13.1796 0.297607C10.844 0.297607 8.66759 1.62735 7.70644 3.7786L11.3585 5.41029C11.6419 4.77605 12.3366 4.29761 13.1796 4.29761V0.297607ZM30.2716 4.29761C31.0731 4.29761 31.747 4.73203 32.0529 5.32725L35.6107 3.49912C34.586 1.50493 32.4972 0.297607 30.2716 0.297607V4.29761ZM6.50896 9.81049L3.17936 8.86678L2.0886 12.7152L5.4182 13.6589L6.50896 9.81049ZM38.2176 13.6589L41.5468 12.7152L40.456 8.8668L37.1268 9.81051L38.2176 13.6589Z" fill="currentColor"></path><path opacity="0.45" d="M2 27.7976H5.5C7 27.7976 8.9 24.2976 10.5 24.2976C12.1 24.2976 21.5 24.2976 23 24.2976" stroke="currentColor" stroke-width="3"></path><path opacity="0.45" d="M42 27.7976H38.5C37 27.7976 35.1 24.2976 33.5 24.2976C31.9 24.2976 24.5 24.2976 23 24.2976" stroke="currentColor" stroke-width="3"></path></svg>

