<svg viewBox="0 0 38 38" fill="none" xmlns="http://www.w3.org/2000/svg"><path d="M0 33.1027C0 34.2072 0.89543 35.1027 2 35.1027C3.10457 35.1027 4 34.2072 4 33.1027H0ZM3.21193 20.4628L4.56494 21.9357H4.56494L3.21193 20.4628ZM6.54406 16.9855L8.37009 17.8013L6.54406 16.9855ZM5.64858 18.2244L4.29557 16.7516L4.29557 16.7516L5.64858 18.2244ZM9.53247 10.2968L7.70644 9.48099V9.48099L9.53247 10.2968ZM3.17936 14.5692C2.11665 14.268 1.01098 14.8853 0.709774 15.948C0.408571 17.0107 1.02589 18.1164 2.0886 18.4176L3.17936 14.5692ZM7.70644 9.48099L4.71803 16.1696L8.37009 17.8013L11.3585 11.1127L7.70644 9.48099ZM4.29557 16.7516L1.85891 18.9899L4.56494 21.9357L7.00159 19.6973L4.29557 16.7516ZM0 23.1797V33.1027H4V23.1797H0ZM1.85891 18.9899C0.68441 20.0688 0 21.5786 0 23.1797H4C4 22.7313 4.19053 22.2796 4.56494 21.9357L1.85891 18.9899ZM4.71803 16.1696C4.62312 16.3821 4.48125 16.581 4.29557 16.7516L7.00159 19.6973C7.58138 19.1647 8.04858 18.5209 8.37009 17.8013L4.71803 16.1696ZM13.1796 6C10.844 6 8.66759 7.32974 7.70644 9.48099L11.3585 11.1127C11.6419 10.4784 12.3366 10 13.1796 10V6ZM6.50896 15.5129L3.17936 14.5692L2.0886 18.4176L5.4182 19.3613L6.50896 15.5129ZM13.1796 10H22.5V6H13.1796V10Z" fill="currentColor"></path><circle cx="9.60528" cy="24.1746" r="2" stroke="currentColor" stroke-width="1.28477"></circle><path opacity="0.45" d="M2 33.5H5.5C7 33.5 8.9 30 10.5 30C12.1 30 21.5 30 23 30" stroke="currentColor" stroke-width="3"></path><line x1="23.5" y1="1.5" x2="23.5" y2="10.5" stroke="currentColor" stroke-width="3" stroke-linecap="round"></line><line x1="23.5" y1="27.5" x2="23.5" y2="36.5" stroke="currentColor" stroke-width="3" stroke-linecap="round"></line><path d="M22 18C21.4477 18 21 18.4477 21 19C21 19.5523 21.4477 20 22 20V18ZM37.7071 19.7071C38.0976 19.3166 38.0976 18.6834 37.7071 18.2929L31.3431 11.9289C30.9526 11.5384 30.3195 11.5384 29.9289 11.9289C29.5384 12.3195 29.5384 12.9526 29.9289 13.3431L35.5858 19L29.9289 24.6569C29.5384 25.0474 29.5384 25.6805 29.9289 26.0711C30.3195 26.4616 30.9526 26.4616 31.3431 26.0711L37.7071 19.7071ZM22 20L37 20V18L22 18V20Z" fill="currentColor"></path></svg>