<svg xmlns="http://www.w3.org/2000/svg" version="1.1" xmlns:xlink="http://www.w3.org/1999/xlink" width="32" height="32" viewBox="0 0 32 32">
<svg xml:space="preserve" width="32" height="32" data-version="2" data-id="lg_UNVPDdEfXyEeIFC5so" viewBox="0 0 455 455" x="0" y="0"><rect width="100%" height="100%" fill="transparent"></rect><path fill="#0074d9" d="M227.601 4.42c123.15.198 222.893 100.031 222.979 223.182-.056 123.125-99.854 222.922-222.979 222.978-123.15-.086-222.983-99.828-223.181-222.978C4.562 104.4 104.4 4.562 227.601 4.42m0 30.268a192.66 192.66 0 0 0-192.66 192.914 192.407 192.407 0 0 0 192.66 192.71 192.305 192.305 0 0 0 192.407-192.71A192.407 192.407 0 0 0 227.6 34.688m0 5.222c103.545.198 187.403 84.147 187.489 187.692 0 103.428-84.162 187.64-187.489 187.64-103.428 0-187.59-84.162-187.59-187.64 0-103.48 84.162-187.692 187.59-187.692m0 30.42c-63.375 0-117.826 37.265-142.72 91.159l109.918 21.091a55.263 55.263 0 0 1 66.214.507L370.575 162.3a156.663 156.663 0 0 0-142.974-91.92m99.575 131.111-46.694 8.873q1.166 3.346 1.875 6.793zm-195.702 0 41.574 14.602q.76-3.296 1.775-6.338zm96.127.811c-14.196 0-25.35 11.154-25.35 25.35s11.154 25.35 25.35 25.35 25.35-11.154 25.35-25.35c0-15.21-9.075-25.451-25.35-25.35m0 5.07a20.28 20.28 0 1 1 0 40.56 20.28 20.28 0 0 1 0-40.56m-156.51 5.375q-.66 7.351-.609 14.905c-.182 76.567 55.01 142.052 130.502 154.838l-8.264-111.438c-7.098-5.73-12.675-13.182-16.275-21.7zm312.97 1.267L278.1 250.924a55.77 55.77 0 0 1-15.717 19.975l-8.214 111.591c80.583-13.74 137.108-87.052 129.894-168.476M230.948 283.27c-2.333.254-4.563.102-6.693 0l3.346 44.363z"></path></svg></svg>