<svg xmlns="http://www.w3.org/2000/svg" version="1.1" xmlns:xlink="http://www.w3.org/1999/xlink"  width="200" height="60" viewBox="0 0 200 60" ><svg xml:space="preserve"  data-version="2" data-id="lg_GFI0AopS97xjP2yt6D"  viewBox="0 0 554 88" x="0" y="0"><rect width="100%" height="100%" fill="transparent"></rect><path fill="#fff" stroke="#fff" stroke-width="2" d="M129.732 66.766h220.536"></path><path fill="#fff" d="m140.584 25.876 7.98-.05q0 .05.04.63l-2.64.3v27.68l3.06.16q0 .05-.04.63l-8.4.05q0-.38.04-.59l2.19-.3q.42-.04.5-.54v-12.77h-14.32v13.36l3.11.16q0 .05-.05.63l-8.44.05.04-.59 2.19-.3q.42-.04.5-.5v-26.63q-.08-.5-.5-.54l-2.19-.21-.04-.63 8.44-.05q0 .05.05.63l-3.11.3v13.48h14.32v-12.94q-.08-.54-.5-.58l-2.19-.21q-.04-.26-.04-.63"></path><rect width="25.41" height="29.45" x="-12.71" y="-14.72" fill="none" rx="0" ry="0" transform="translate(136.82 41.05)"></rect><path fill="#fff" d="m161.244 55.226-8.44.05.04-.59 2.19-.3q.42-.04.5-.54h.04v-26.55h-.04q-.08-.54-.5-.58l-2.19-.21-.04-.63 8.44-.05q0 .05.05.63l-2.86.26v27.72l2.86.16q0 .05-.05.63"></path><rect width="8.49" height="29.45" x="-4.25" y="-14.72" fill="none" rx="0" ry="0" transform="translate(157.55 41.05)"></rect><path fill="#fff" d="m179.684 43.136 7.56-.04q0 .04.04.63l-1.68.21v10.41q-.71.25-3.8.65-3.08.4-5.02.4-1.93 0-3.36-.27-1.42-.27-3.02-1.16-1.6-.88-2.71-2.33-1.11-1.45-1.87-3.97-.75-2.52-.75-5.88 0-7.43 3.4-11.59 3.57-4.37 9.74-4.37 1.89 0 4.1.36 2.2.36 3.13.69l.5 6.05-.8.3-.54-4.5q-3.41-2.31-6.39-2.31-4.74 0-7.52 3.95-2.77 3.95-2.77 11.42 0 9.08 4.16 11.72 1.26.8 2.33 1.03 1.07.23 3 .23 1.94 0 5.67-.54l.17-9.66q0-.51-.5-.59l-3.03-.21q-.04-.25-.04-.63"></path><rect width="22.21" height="29.57" x="-11.11" y="-14.79" fill="none" rx="0" ry="0" transform="translate(176.68 41.11)"></rect><path fill="#fff" d="m207.824 25.876 7.98-.05q0 .05.04.63l-2.64.3v27.68l3.06.16q0 .05-.04.63l-8.4.05q0-.38.04-.59l2.19-.3q.42-.04.5-.54v-12.77h-14.32v13.36l3.11.16q0 .05-.04.63l-8.45.05.05-.59 2.18-.3q.42-.04.5-.5v-26.63q-.08-.5-.5-.54l-2.18-.21-.05-.63 8.45-.05q0 .05.04.63l-3.11.3v13.48h14.32v-12.94q-.08-.54-.5-.58l-2.19-.21q-.04-.26-.04-.63"></path><rect width="25.41" height="29.45" x="-12.71" y="-14.72" fill="none" rx="0" ry="0" transform="translate(204.06 41.05)"></rect><path fill="#fff" d="M224.084 43.806v-.76h12.68v.76z"></path><rect width="12.68" height=".76" x="-6.34" y="-.38" fill="none" rx="0" ry="0" transform="translate(230.92 43.93)"></rect><path fill="#fff" d="m246.974 26.716-2.23-.26.04-.63h5.55l10.03 21.3 9.87-21.3h5.55q0 .09.04.3t0 .33l-2.23.26q-.42.04-.5.54v27.18l3.11.16q0 .05-.04.63l-8.45.05.05-.59 2.18-.3q.42-.04.5-.5v-26.54l-9.57 20.7-.84 1.68h-.97l-10.62-22.43v27.05l4.78.25q0 .05-.04.63l-8.44.05.04-.59 2.19-.3q.42-.04.5-.54v-26.59q-.08-.5-.5-.54"></path><rect width="31.46" height="29.45" x="-15.73" y="-14.72" fill="none" rx="0" ry="0" transform="translate(260.97 41.05)"></rect><path fill="#fff" d="M279.354 40.616q0-6.93 3.55-11.05 3.55-4.11 8.84-4.11 12.39 0 12.39 15.16 0 6.97-3.53 10.98-3.53 4.01-8.86 4.01-12.39 0-12.39-14.99m2.85-.09q0 14.24 9.54 14.24 4.11 0 6.82-3.78t2.71-10.46q0-14.23-9.53-14.23-4.08 0-6.81 3.82-2.73 3.82-2.73 10.41"></path><rect width="24.78" height="30.15" x="-12.39" y="-15.07" fill="none" rx="0" ry="0" transform="translate(292.24 41.03)"></rect><path fill="#fff" d="m310.134 26.716-2.22-.26.04-.63h8.99q9.07 0 9.07 7.1 0 2.73-3.61 5.97 5.33 1.3 5.33 7.64 0 4.96-2.5 6.82-2.5 1.87-7.66 1.87h-1.22l-8.44.05.04-.59 2.18-.3q.42-.04.51-.54v-26.55q-.09-.54-.51-.58m8.28 12.43h-4.92v15.45h3.87q7.52 0 7.52-7.89 0-4.03-1.62-5.8-1.62-1.76-4.85-1.76m-4.92-.63h5.13q1.55 0 2.69.17 1.84-2.9 1.84-5.51 0-6.72-6.42-6.72h-3.24z"></path><rect width="19.82" height="29.45" x="-9.91" y="-14.72" fill="none" rx="0" ry="0" transform="translate(318.32 41.05)"></rect><path fill="#fff" d="m339.324 55.226-8.44.05.04-.59 2.19-.3q.42-.04.5-.54h.04v-26.55h-.04q-.08-.54-.5-.58l-2.19-.21-.04-.63 8.44-.05q0 .05.05.63l-2.86.26v27.72l2.86.16q0 .05-.05.63"></path><rect width="8.49" height="29.45" x="-4.25" y="-14.72" fill="none" rx="0" ry="0" transform="translate(335.63 41.05)"></rect><path fill="#fff" d="m343.574 25.876 8.44-.05q0 .05.04.63l-2.9.26v27.67h11.59l.84-6.72.8.21-.63 7.35h-9.74l-8.44.05.04-.59 2.18-.3q.42-.04.51-.54v-26.59q-.09-.5-.51-.54l-2.18-.21z"></path><rect width="18.81" height="29.45" x="-9.4" y="-14.72" fill="none" rx="0" ry="0" transform="translate(353.48 41.05)"></rect><path fill="#fff" d="m373.724 55.226-8.44.05.04-.59 2.19-.3q.42-.04.5-.54h.04v-26.55h-.04q-.08-.54-.5-.58l-2.19-.21-.04-.63 8.44-.05q0 .05.04.63l-2.85.26v27.72l2.85.16q0 .05-.04.63"></path><rect width="8.48" height="29.45" x="-4.24" y="-14.72" fill="none" rx="0" ry="0" transform="translate(370.02 41.05)"></rect><path fill="#fff" d="M385.404 53.846v-27.18h-7.23l-.67 5.55-.8-.34.42-5.21h-.04l.09-.33.04-.51.08.05v-.05h19.07l.55 6.05-.84.34-.68-5.55h-7.35v27.77l3.07.16q0 .05-.04.63l-8.4.05q0-.38.04-.59l2.18-.3q.42-.04.51-.54"></path><rect width="20.21" height="29.45" x="-10.11" y="-14.72" fill="none" rx="0" ry="0" transform="translate(387.3 41.05)"></rect><path fill="#fff" d="m415.974 25.876 8.19-.05q0 .05.05.63l-2.4.21-8.99 18.65v9.12l3.07.16q0 .05-.04.63l-8.4.05q0-.38.04-.59l2.18-.3q.42-.04.51-.54v-8.53l-9.45-18.44q-.17-.12-.34-.21l-1.76-.16q-.04-.26-.04-.63l8.48-.05q0 .05.04.63l-3.44.3 8.69 17.85 7.86-17.22q0-.51-.38-.55l-3.82-.33q-.05-.26-.05-.63"></path><rect width="25.62" height="29.45" x="-12.81" y="-14.72" fill="none" rx="0" ry="0" transform="translate(411.9 41.05)"></rect><path fill="#fff" d="m140.104 75.086-.13 1.56h-7.56v6.83h7.02l-.13 1.56h-6.89v8.25h-1.77v-18.2z"></path><rect width="9.46" height="18.2" x="-4.73" y="-9.1" fill="none" rx="0" ry="0" transform="translate(135.87 84.69)"></rect><path fill="#fff" d="M144.654 93.286h-1.69v-19.37l1.69-.13z"></path><rect width="1.69" height="19.5" x="-.84" y="-9.75" fill="none" rx="0" ry="0" transform="translate(144.3 84.04)"></rect><path fill="#fff" d="M148.814 86.886v.42q0 4.57 4.37 4.57 1.85 0 3.38-.49.39-.13.55-.21l.39 1.38q-.91.54-3.31.78-.67.05-1.43.05-2.18 0-3.64-1.09-2-1.48-2-4.94 0-3.46 1.81-5.32 1.81-1.86 4.38-1.86t3.87 1.67q.99 1.32.99 3.51 0 .52-.05 1.09h-9.28q-.03.21-.03.44m4.6-5.1q-1.61 0-2.75.98-1.15.97-1.59 2.51h7.57q-.13-2.89-2.24-3.36-.47-.13-.99-.13"></path><rect width="11.05" height="13.21" x="-5.53" y="-6.61" fill="none" rx="0" ry="0" transform="translate(153.15 87.28)"></rect><path fill="#fff" d="M162.234 86.886v.42q0 4.57 4.37 4.57 1.84 0 3.38-.49.39-.13.54-.21l.39 1.38q-.91.54-3.3.78-.68.05-1.43.05-2.18 0-3.64-1.09-2-1.48-2-4.94 0-3.46 1.8-5.32 1.81-1.86 4.39-1.86 2.57 0 3.87 1.67.99 1.32.99 3.51 0 .52-.05 1.09h-9.29q-.02.21-.02.44m4.6-5.1q-1.61 0-2.76.98-1.14.97-1.58 2.51h7.56q-.13-2.89-2.23-3.36-.47-.13-.99-.13"></path><rect width="11.05" height="13.21" x="-5.53" y="-6.61" fill="none" rx="0" ry="0" transform="translate(166.57 87.28)"></rect><path fill="#fff" d="m179.734 91.406.31 1.41q-.47.47-1.69.47-1.72 0-2.32-.89-1.01-.96-1.01-2.6v-8.01h-1.46l.24-1.5h1.22v-2.58l1.69-.15v2.73h3.02v1.5h-3.02v8.43q0 1.51 1.56 1.51.68 0 1.46-.32"></path><rect width="6.48" height="15.73" x="-3.24" y="-7.87" fill="none" rx="0" ry="0" transform="translate(177.3 85.92)"></rect><path fill="#fff" d="M192.444 93.286h-1.64v-18.2h1.77l6.68 13.31 6.68-13.31h1.77v18.2h-1.64v-15.19l-5.92 11.78h-1.77l-5.93-11.78z"></path><rect width="16.9" height="18.2" x="-8.45" y="-9.1" fill="none" rx="0" ry="0" transform="translate(199.75 84.69)"></rect><path fill="#fff" d="m211.584 82.936-.47-1.25q2.83-1.4 4.96-1.48 1.69 0 2.62.43.92.43 1.49 1.19.57.77.57 2.15v9.31h-1.69v-.99q-3.56 1.09-4.57 1.09h-.08q-2.34 0-3.2-1.43-.31-.52-.35-1.01-.04-.5-.04-.84 0-.93.73-1.67.73-.74 1.74-1 1.72-.45 5.77-.78v-2.11q0-2.83-2.96-2.83-2.08 0-4.52 1.22m.83 7.38q0 1.87 2.57 1.87 2.06 0 4.08-.88v-3.72q-4.05.57-5.01.89-1.64.52-1.64 1.84"></path><rect width="9.93" height="13.18" x="-4.96" y="-6.59" fill="none" rx="0" ry="0" transform="translate(216.29 87.3)"></rect><path fill="#fff" d="M225.044 80.156v1.56q1.95-1.43 3.7-1.51 1.58 0 2.44.39.86.39 1.42 1.1.56.72.56 2.02v9.57h-1.69v-9.13q0-.96-.42-1.48-.83-.96-2.55-.96-1.64.07-3.46 1.06v10.51h-1.69v-13z"></path><rect width="9.81" height="13.13" x="-4.91" y="-6.57" fill="none" rx="0" ry="0" transform="translate(228.76 87.22)"></rect><path fill="#fff" d="m236.774 82.936-.47-1.25q2.84-1.4 4.97-1.48 1.69 0 2.61.43.92.43 1.5 1.19.57.77.57 2.15v9.31h-1.69v-.99q-3.56 1.09-4.58 1.09h-.08q-2.34 0-3.19-1.43-.32-.52-.36-1.01-.03-.5-.03-.84 0-.93.72-1.67.73-.74 1.75-1 1.71-.45 5.77-.78v-2.11q0-2.83-2.97-2.83-2.08 0-4.52 1.22m.83 7.38q0 1.87 2.58 1.87 2.05 0 4.08-.88v-3.72q-4.06.57-5.02.89-1.64.52-1.64 1.84"></path><rect width="9.93" height="13.18" x="-4.96" y="-6.59" fill="none" rx="0" ry="0" transform="translate(241.49 87.3)"></rect><path fill="#fff" d="M250.684 88.266q-1.92-.96-1.92-3.62 0-2.18 1.5-3.32 1.51-1.15 3.85-1.15.63 0 1.54.13l4.88-.13-.05.99h-2.83q1.43 1.07 1.43 3.21 0 2.15-1.43 3.3-1.43 1.16-3.69 1.16-1.46 0-2.42-.26-.5.47-.5 1.09 0 .89.98 1.28.97.39 2.3.57 2.94.39 4.24 1.09 1.87 1.04 1.87 3.2t-2.05 3.2q-1.56.78-3.77.78t-3.41-.34q-3.15-.91-3.15-3.38 0-2.47 2.79-4.19-1.1-.8-1.1-1.87t.94-1.74m8.06 7.51q0-1.69-2.24-2.34-.62-.18-2.23-.44-1.61-.26-2.52-.62-2.01 1.66-2.01 3.22 0 .68.21 1.12.21.44.73.78 1.14.78 3.48.78 3.07 0 4.16-1.3.42-.5.42-1.2m-1.43-11.46q0-2.76-3.28-2.76-1.56 0-2.57.71-1.01.72-1.01 2.19t.72 2.23q.73.77 2.46.77t2.7-.83q.98-.83.98-2.31"></path><rect width="12.48" height="19.61" x="-6.24" y="-9.8" fill="none" rx="0" ry="0" transform="translate(254.8 90.48)"></rect><path fill="#fff" d="M264.954 86.886v.42q0 4.57 4.37 4.57 1.85 0 3.38-.49.39-.13.55-.21l.39 1.38q-.91.54-3.3.78-.68.05-1.43.05-2.19 0-3.64-1.09-2.01-1.48-2.01-4.94 0-3.46 1.81-5.32 1.81-1.86 4.38-1.86 2.58 0 3.88 1.67.98 1.32.98 3.51 0 .52-.05 1.09h-9.28q-.03.21-.03.44m4.61-5.1q-1.62 0-2.76.98-1.14.97-1.59 2.51h7.57q-.13-2.89-2.24-3.36-.46-.13-.98-.13"></path><rect width="11.05" height="13.21" x="-5.53" y="-6.61" fill="none" rx="0" ry="0" transform="translate(269.29 87.28)"></rect><path fill="#fff" d="M281.654 81.716q-1.46.07-3.15.96v10.61h-1.69v-13l1.69-.13v1.45q1.74-1.32 3.38-1.4 2.76 0 3.8 1.38 1.97-1.3 3.82-1.38 1.58 0 2.44.39.86.39 1.42 1.1.56.72.56 2.02v9.57h-1.69v-9.13q0-.96-.44-1.48-.81-.96-2.29-.96-1.56 0-3.33.93.13.52.13 1.07v9.57h-1.69v-9.13q0-.96-.42-1.48-.83-.96-2.54-.96"></path><rect width="17.11" height="13.13" x="-8.55" y="-6.57" fill="none" rx="0" ry="0" transform="translate(285.87 87.22)"></rect><path fill="#fff" d="M298.864 86.886v.42q0 4.57 4.37 4.57 1.84 0 3.38-.49.39-.13.54-.21l.39 1.38q-.91.54-3.3.78-.68.05-1.43.05-2.18 0-3.64-1.09-2-1.48-2-4.94 0-3.46 1.8-5.32 1.81-1.86 4.39-1.86 2.57 0 3.87 1.67.99 1.32.99 3.51 0 .52-.05 1.09h-9.29q-.02.21-.02.44m4.6-5.1q-1.61 0-2.76.98-1.14.97-1.58 2.51h7.56q-.13-2.89-2.23-3.36-.47-.13-.99-.13"></path><rect width="11.05" height="13.21" x="-5.53" y="-6.61" fill="none" rx="0" ry="0" transform="translate(303.2 87.28)"></rect><path fill="#fff" d="M312.404 80.156v1.56q1.95-1.43 3.7-1.51 1.58 0 2.44.39.86.39 1.42 1.1.56.72.56 2.02v9.57h-1.69v-9.13q0-.96-.42-1.48-.83-.96-2.55-.96-1.64.07-3.46 1.06v10.51h-1.69v-13z"></path><rect width="9.81" height="13.13" x="-4.91" y="-6.57" fill="none" rx="0" ry="0" transform="translate(316.12 87.22)"></rect><path fill="#fff" d="m329.544 91.406.31 1.41q-.47.47-1.69.47-1.72 0-2.31-.89-1.02-.96-1.02-2.6v-8.01h-1.45l.23-1.5h1.22v-2.58l1.69-.15v2.73h3.02v1.5h-3.02v8.43q0 1.51 1.56 1.51.68 0 1.46-.32"></path><rect width="6.47" height="15.73" x="-3.23" y="-7.87" fill="none" rx="0" ry="0" transform="translate(327.12 85.92)"></rect><path fill="#fff" d="m80.592 54.308-19.363 2.133a10.748 10.748 0 1 1 0-12.881l19.363 2.144a4.328 4.328 0 0 1 0 8.604M18.096 84.53a4.55 4.55 0 0 0 6.41 0l3.853-3.873 3.872-3.872a4.533 4.533 0 0 0-6.41-6.41l-3.873 3.872a38.927 38.927 0 0 1-8.14-19.706h5.612a4.55 4.55 0 0 0 4.53-4.53 4.55 4.55 0 0 0-4.53-4.53h-5.58a38.927 38.927 0 0 1 8.088-19.696l3.873 3.872a4.533 4.533 0 1 0 6.41-6.41l-3.852-3.832a38.927 38.927 0 0 1 19.736-8.19v5.45a4.55 4.55 0 0 0 4.53 4.53 4.55 4.55 0 0 0 4.53-4.53v-5.45a38.927 38.927 0 0 1 19.736 8.19l-3.872 3.872a4.533 4.533 0 0 0 6.41 6.41l3.873-3.872c11.213 14.212 11.213 34.26 0 48.472l-3.903-3.923a4.533 4.533 0 0 0-6.41 6.41l3.902 3.873 3.873 3.873a4.55 4.55 0 0 0 6.41 0A48.796 48.796 0 0 0 52.625 1.215a48.796 48.796 0 0 0-34.53 83.315m48.908 5.945a6.067 6.067 0 0 0 1.01-.293 4.044 4.044 0 0 0 .921-.486 3.64 3.64 0 0 0 1.385-1.84 3.033 3.033 0 0 0 .162-1.233 4.044 4.044 0 0 0-.313-1.224 4.044 4.044 0 0 0-.759-1.122L56.083 70.122a4.044 4.044 0 0 0-.708-.587 5.056 5.056 0 0 0-.839-.435 5.056 5.056 0 0 0-.95-.273 5.056 5.056 0 0 0-2.023 0 5.056 5.056 0 0 0-.95.273 5.056 5.056 0 0 0-.84.435 4.044 4.044 0 0 0-.697.587L35.75 84.277a4.044 4.044 0 0 0-.415.516 4.044 4.044 0 0 0-.323.556 4.044 4.044 0 0 0-.213.586 3.033 3.033 0 0 0-.11.617v.465l.06.465a3.033 3.033 0 0 0 .313.89 4.044 4.044 0 0 0 .678.91 4.044 4.044 0 0 0 .94.698 5.056 5.056 0 0 0 1.142.444 5.056 5.056 0 0 0 1.295.152h5.55l-.313 9.727h16.552l-.354-9.727h5.329a6.067 6.067 0 0 0 1.122-.101"></path></svg></svg>