<svg xmlns="http://www.w3.org/2000/svg" version="1.1" xmlns:xlink="http://www.w3.org/1999/xlink" width="176" height="32" viewBox="0 0 176 32">
    <svg xml:space="preserve"  data-version="2" data-id="lg_UNVPDdEfXyEeIFC5so" viewBox="0 0 554 88" x="0" y="0">
        <rect width="100%" height="100%" fill="transparent">
        </rect>
        <path fill="#0074d9" d="M48.71.88c23.804.038 43.083 19.335 43.1 43.14-.01 23.799-19.301 43.089-43.1 43.1-23.805-.017-43.102-19.296-43.14-43.1C5.597 20.204 24.896.906 48.71.88m0 5.85a37.24 37.24 0 0 0-37.24 37.29 37.191 37.191 0 0 0 37.24 37.25A37.171 37.171 0 0 0 85.9 44.02 37.191 37.191 0 0 0 48.71 6.73m0 1.01c20.014.038 36.223 16.265 36.24 36.28 0 19.991-16.268 36.27-36.24 36.27-19.992 0-36.26-16.269-36.26-36.27 0-20.002 16.268-36.28 36.26-36.28m0 5.88c-12.25 0-22.776 7.203-27.587 17.62l21.246 4.077a10.682 10.682 0 0 1 12.799.098l21.178-4.018A30.282 30.282 0 0 0 48.71 13.63m19.247 25.342-9.026 1.715q.225.647.363 1.314zm-37.828 0 8.036 2.823q.147-.637.343-1.225zm18.58.157c-2.743 0-4.9 2.156-4.9 4.9s2.157 4.9 4.9 4.9 4.9-2.156 4.9-4.9c0-2.94-1.754-4.92-4.9-4.9m0 .98a3.92 3.92 0 1 1 0 7.84 3.92 3.92 0 0 1 0-7.84m-30.252 1.039q-.127 1.421-.118 2.881c-.035 14.8 10.633 27.458 25.226 29.93l-1.598-21.541a10.763 10.763 0 0 1-3.146-4.194zm60.495.245L58.47 48.527a10.78 10.78 0 0 1-3.038 3.862l-1.587 21.57c15.576-2.656 26.502-16.827 25.107-32.566M49.356 54.78c-.45.049-.882.02-1.293 0l.647 8.575z">
        </path>
        <path fill="#fff" d="M192.67 73.71h-39.61l-.19-.19-12.16-2.56V10.35h40.56l7.6 8.55h-35.05v18.24h23.65l7.6 8.55h-31.16v19.47h31.16zm43.6-26.31h-36.39l-2.94-7.7h36.38zm8.84-41.14 11.88 2.66v67.55l-11.88-2.66zm30.11 16.25q-4.85-2.28-7.22-6.94.19-1.52 2.85-3.89 2.66-2.38 4.27-2.76 4.85 2.19 7.13 6.75-1.62 4.08-7.03 6.84m-6.18 5.79 11.88 2.66v45.51l-11.88-2.66zm64.52 6.46-3.42 4.94q-1.43-.47-3.33-1.18-1.9-.72-2.94-1.05-1.05-.33-2.28-.71-1.24-.38-2.04-.52-.81-.15-1.48-.15-6.17.29-10.45 7.98-4.08 7.41-3.13 14.92.85 7.5 6.65 8.36 6.74.95 18.05-7.79l1.8 2.09q1.9 2.09 3.71 4.27l1.8 2.09q-3.7 2.76-6.5 4.47-2.81 1.71-5.75 2.8-2.95 1.09-5.75 1.05-2.8-.05-5.75-1.19-8.17-3.14-15.39-11.02-4.27-4.75-4.7-11.26-.43-6.51 2.28-12.11 2.71-5.61 8.03-9.55 5.32-3.94 11.59-3.94 2.94 0 19 7.5m21.17 20.05 21.57-14.73q-6.84-4.37-11.64-3.23-4.8 1.14-7.36 5.94-2.57 4.8-2.57 12.02m9.6 3.7-7.41 5.42q2.66 3.23 5.98 3.99 3.33.76 6.99-.9 3.65-1.67 6.12-3.33 2.47-1.66 5.8-4.42l1.9 1.9q1.8 2 3.61 3.99l1.9 1.9q-8.27 6.08-13.97 8.13-5.7 2.04-11.3-.05-8.17-3.14-15.39-11.02-4.28-4.75-4.94-11.26-.67-6.51 1.66-12.11 2.33-5.61 7.22-9.55 4.89-3.94 10.69-3.94 3.8 0 11.26 4.89 7.45 4.89 12.39 9.55-.09.28-7.55 5.84t-14.96 10.97m33.26-30.21 12.35 2.66v3.9q8.45-7.89 14.82-7.51 3.04.19 10.69 7.56 7.64 7.36 8.12 10.02.38 2.47.38 31.54l-11.78-2.66q.57-32.59-.48-34.49-1.71-3.23-5.65-1.94-3.94 1.28-8.17 4.6-4.23 3.33-7.93 7.79v26.7l-12.35-2.66zm90.24 3.14-1.05 5.13q-9.21-2.09-12.16-1.71-4.65.57-7.31 4.51-2.66 3.94-1.9 7.55.19.86 4.37-.19 4.18-1.04 9.12-2.13 4.94-1.1 6.36-.34 6.56 3.42 8.84 9.03 2.28 5.6.52 10.69-1.76 5.08-7.17 8.78-5.42 3.71-13.02 3.71-6.27 0-11.63-3.47-5.37-3.47-12.59-10.4l1.71-3.23q6.46 4.84 13.68 6.51 7.22 1.66 13.44-1.29 6.22-2.94 8.31-10.83.1-.38-.85-.28-1.05.09-5.23 1.23-13.2 3.52-16.81 2.09l-.86-.47q-5.22-3.99-8.45-8.74-2.38-3.23-1.95-6.84.43-3.61 2.42-6.6 2-3 5.99-4.94 3.99-1.95 8.74-1.95 1.42 0 4.04.57 2.61.57 7.41 1.95 4.79 1.37 6.03 1.66m25.55 23.37 21.57-14.73q-6.84-4.37-11.64-3.23-4.8 1.14-7.36 5.94-2.57 4.8-2.57 12.02m9.6 3.7-7.41 5.42q2.66 3.23 5.98 3.99 3.33.76 6.99-.9 3.65-1.67 6.12-3.33 2.47-1.66 5.8-4.42l1.9 1.9q1.8 2 3.61 3.99l1.9 1.9q-8.27 6.08-13.97 8.13-5.7 2.04-11.3-.05-8.17-3.14-15.39-11.02-4.28-4.75-4.94-11.26-.67-6.51 1.66-12.11 2.33-5.61 7.22-9.55 4.89-3.94 10.69-3.94 3.8 0 11.26 4.89 7.45 4.89 12.39 9.55-.09.28-7.55 5.84t-14.96 10.97">
        </path>
    </svg>
</svg>